<?xml version="1.0" standalone="no"?><!DOCTYPE svg PUBLIC "-//W3C//DTD SVG 1.1//EN" "http://www.w3.org/Graphics/SVG/1.1/DTD/svg11.dtd"><svg t="1503987614056" class="icon" style="" viewBox="0 0 1024 1024" version="1.1" xmlns="http://www.w3.org/2000/svg" p-id="6563" xmlns:xlink="http://www.w3.org/1999/xlink" width="128" height="128"><defs><style type="text/css"></style></defs><path d="M511.976727 977.454545C255.325091 977.454545 46.545455 768.628364 46.545455 511.976727 46.545455 255.371636 255.325091 46.545455 511.976727 46.545455 768.628364 46.545455 977.454545 255.348364 977.454545 511.976727 977.408 768.628364 768.628364 977.454545 511.976727 977.454545z m0-881.943272C282.344727 95.511273 95.488 282.344727 95.488 512c0 229.678545 186.856727 416.512 416.488727 416.512 229.678545 0 416.512-186.833455 416.512-416.512 0-229.655273-186.833455-416.488727-416.512-416.488727z m0 690.827636c-91.229091 0-177.617455-39.982545-237.079272-109.661091a24.436364 24.436364 0 1 1 37.236363-31.744 262.562909 262.562909 0 0 0 199.842909 92.462546 262.516364 262.516364 0 0 0 199.889455-92.462546 24.436364 24.436364 0 1 1 37.213091 31.744 311.342545 311.342545 0 0 1-237.102546 109.661091z m-146.781091-281.483636h-5.934545a39.400727 39.400727 0 0 1-39.377455-39.377455v-70.493091c0-21.736727 17.664-39.377455 39.377455-39.377454h5.934545c21.713455 0 39.354182 17.664 39.354182 39.377454v70.493091c0 21.736727-17.640727 39.377455-39.354182 39.377455z m299.52 0h-5.934545a39.377455 39.377455 0 0 1-39.354182-39.377455v-70.493091c0-21.736727 17.664-39.377455 39.354182-39.377454h5.934545c21.713455 0 39.354182 17.664 39.354182 39.377454v70.493091c0 21.736727-17.664 39.377455-39.354182 39.377455z" p-id="6564" fill="#515151"></path></svg>