<?xml version="1.0" encoding="utf-8"?>
<!-- Generator: Adobe Illustrator 13.0.0, SVG Export Plug-In . SVG Version: 6.00 Build 14948)  -->
<!DOCTYPE svg PUBLIC "-//W3C//DTD SVG 1.1//EN" "http://www.w3.org/Graphics/SVG/1.1/DTD/svg11.dtd">
<svg version="1.1" id="图层_1" xmlns="http://www.w3.org/2000/svg" xmlns:xlink="http://www.w3.org/1999/xlink" x="0px" y="0px"
	 width="301px" height="287.667px" viewBox="0 0 301 287.667" enable-background="new 0 0 301 287.667" xml:space="preserve">
<path fill="#FFFFFF" stroke="#7E7E7E" d="M300.5,258.5c0,15.833-13.431,28.666-30,28.666h-240c-16.568,0-30-12.833-30-28.666V29.167
	C0.5,13.334,13.932,0.5,30.5,0.5h240c16.569,0,30,12.834,30,28.667V258.5z"/>
<g>
	<g>
		<path fill="#7E7E7E" d="M223.375,74.753H77.626c-10.052,0-18.213,7.731-18.213,17.27v103.62c0,9.537,8.162,17.27,18.213,17.27
			h145.748c10.051,0,18.212-7.732,18.212-17.27V92.023C241.587,82.485,233.425,74.753,223.375,74.753L223.375,74.753z
			 M229.445,157.159c-8.784-3.384-19.237-1.702-26.374,5.054l-16.3,15.465c-0.333-0.353-0.579-0.756-0.945-1.089l-51.582-48.915
			c-9.506-8.998-24.906-8.998-34.402,0l-28.286,26.819v-50.961c0-9.537,8.162-17.27,18.224-17.27h121.441
			c10.062,0,18.223,7.732,18.223,17.27L229.445,157.159z M189.973,103.532c-11.742,0-21.261,9.02-21.261,20.156
			c0,11.126,9.519,20.145,21.261,20.145c11.74,0,21.248-9.019,21.248-20.145C211.221,112.551,201.704,103.532,189.973,103.532
			L189.973,103.532z M189.973,103.532"/>
	</g>
</g>
</svg>
