<?xml version="1.0" encoding="utf-8"?>
<!-- Generator: Adobe Illustrator 13.0.0, SVG Export Plug-In . SVG Version: 6.00 Build 14948)  -->
<!DOCTYPE svg PUBLIC "-//W3C//DTD SVG 1.1//EN" "http://www.w3.org/Graphics/SVG/1.1/DTD/svg11.dtd">
<svg version="1.1" id="图层_1" xmlns="http://www.w3.org/2000/svg" xmlns:xlink="http://www.w3.org/1999/xlink" x="0px" y="0px"
	 width="128px" height="16px" viewBox="0 0 128 16" enable-background="new 0 0 128 16" xml:space="preserve">
<g>
	<path fill="#888888" d="M8.478,16.125l-1.271-1.272c1.931-1.653,3.165-4.105,3.165-6.846c0-2.613-1.12-4.961-2.898-6.604
		l1.28-1.278c2.097,1.973,3.418,4.771,3.418,7.882C12.171,11.246,10.742,14.149,8.478,16.125L8.478,16.125z M8.478,16.125"/>
	<path fill="#888888" d="M5.053,12.696l-1.316-1.312c1.191-0.66,2-1.927,2-3.377c0-1.324-0.668-2.493-1.679-3.186l1.285-1.289
		c1.332,1.042,2.197,2.653,2.197,4.475C7.539,9.956,6.547,11.677,5.053,12.696L5.053,12.696z M1.617,9.551
		c-0.714,0-1.288-0.578-1.288-1.289c0-0.711,0.573-1.29,1.288-1.29c0.708,0,1.285,0.578,1.285,1.29
		C2.901,8.973,2.324,9.551,1.617,9.551L1.617,9.551z M1.617,9.551"/>
</g>
</svg>
