<?xml version="1.0" standalone="no"?><!DOCTYPE svg PUBLIC "-//W3C//DTD SVG 1.1//EN" "http://www.w3.org/Graphics/SVG/1.1/DTD/svg11.dtd"><svg t="1503987844520" class="icon" style="" viewBox="0 0 1024 1024" version="1.1" xmlns="http://www.w3.org/2000/svg" p-id="2930" xmlns:xlink="http://www.w3.org/1999/xlink" width="128" height="128"><defs><style type="text/css"></style></defs><path d="M935.947 882.989l-0.024-0.024v0.025l0.024-0.001c7.989 9.334 11.997 19.663 11.997 30.987 0 12.669-4.504 23.494-13.515 32.505a44.356 44.356 0 0 1-32.529 13.515 48.61 48.61 0 0 1-15.505-2.514 41.313 41.313 0 0 1-13.515-7.467l-5.003-4.008-247.221-248.986c-59.358 42.012-125.763 62.993-199.159 62.993-7.343 0-14.834-0.324-22.499-0.97a243.187 243.187 0 0 1-22.525-3.011 322.048 322.048 0 0 1-142.139-52.018c-46.691-29.99-84.049-69.639-112.074-118.992a324.547 324.547 0 0 1-31.534-72.999 357.413 357.413 0 0 1-14.013-78.997 338.844 338.844 0 0 1 4.505-79.993 330.175 330.175 0 0 1 44.052-120.511 332.847 332.847 0 0 1 86.066-95.499c29.368-23.346 62.222-41.339 98.585-54.008A336.782 336.782 0 0 1 421.497 64c16.028 0 31.36 0.995 46.069 3.012 39.35 5.326 77.031 17.321 113.07 35.989a333.816 333.816 0 0 1 94.105 72.003c31.335 32.679 55.179 71.332 71.53 116.006 16.352 44.675 23.545 89.999 21.529 135.992-2.663 76.683-29.02 145.674-79.072 207L936.919 882.99l-0.972-0.001zM715.756 426.007a280.49 280.49 0 0 0-20.01-119.989 283.148 283.148 0 0 0-35.044-66.004c-14.684-20.658-31.858-39.15-51.519-55.503a296.172 296.172 0 0 0-63.541-40.518 290.751 290.751 0 0 0-156.128-24.989 46.16 46.16 0 0 0-9.009 0.995l-6.023 0.996a283.994 283.994 0 0 0-118.594 47.488 282.843 282.843 0 0 0-86.564 93.506c-24.664 40.644-38.179 85.991-40.543 135.992-2.34 50.002 6.82 96.345 27.527 139.004a280.006 280.006 0 0 0 75.537 100.003A289.285 289.285 0 0 0 342.426 696c42.709 11.995 85.743 14.335 129.098 6.992a291.02 291.02 0 0 0 66.08-19.986 302.596 302.596 0 0 0 59.533-34.496 303.021 303.021 0 0 0 50.051-47.015c15.009-17.671 27.527-36.835 37.533-57.492v0.024a287.157 287.157 0 0 0 31.036-118.022h-0.001v0.002z" fill="#515151" p-id="2931"></path></svg>