<?xml version="1.0" encoding="utf-8"?>
<!-- Generator: Adobe Illustrator 13.0.0, SVG Export Plug-In . SVG Version: 6.00 Build 14948)  -->
<!DOCTYPE svg PUBLIC "-//W3C//DTD SVG 1.1//EN" "http://www.w3.org/Graphics/SVG/1.1/DTD/svg11.dtd">
<svg version="1.1" id="图层_1" xmlns="http://www.w3.org/2000/svg" xmlns:xlink="http://www.w3.org/1999/xlink" x="0px" y="0px"
	 width="301px" height="287.667px" viewBox="0 0 301 287.667" enable-background="new 0 0 301 287.667" xml:space="preserve">
<path fill="#FFFFFF" stroke="#7E7E7E" d="M300.5,258.5c0,15.833-13.431,28.666-30,28.666h-240c-16.568,0-30-12.833-30-28.666V29.167
	C0.5,13.334,13.932,0.5,30.5,0.5h240c16.569,0,30,12.834,30,28.667V258.5z"/>
<g>
	<g>
		<path fill="#7E7E7E" d="M565.638,81.196H419.89c-10.052,0-18.213,7.731-18.213,17.27v103.62c0,9.537,8.162,17.27,18.213,17.27
			h145.748c10.051,0,18.212-7.732,18.212-17.27V98.465C583.85,88.927,575.688,81.196,565.638,81.196L565.638,81.196z
			 M571.708,163.601c-8.784-3.384-19.237-1.702-26.374,5.054l-16.3,15.465c-0.333-0.353-0.579-0.756-0.945-1.089l-51.582-48.915
			c-9.506-8.998-24.906-8.998-34.402,0l-28.286,26.819v-50.961c0-9.537,8.162-17.27,18.224-17.27h121.441
			c10.062,0,18.223,7.732,18.223,17.27L571.708,163.601z M532.236,109.974c-11.742,0-21.261,9.02-21.261,20.156
			c0,11.126,9.519,20.145,21.261,20.145c11.74,0,21.248-9.019,21.248-20.145C553.484,118.994,543.967,109.974,532.236,109.974
			L532.236,109.974z M532.236,109.974"/>
	</g>
</g>
<g>
	<g>
		<path fill="#7E7E7E" d="M213.5,128.852c-0.094,5.881-1.001,11.573-2.736,17.166c-1.453,4.674-3.433,9.095-5.846,13.323
			c-1.441,2.519-2.88,5.049-4.495,7.453c-1.282,1.899-2.822,3.624-4.262,5.428c-1.635,2.035-3.271,4.065-4.906,6.097
			c-1.756,2.177-3.506,4.353-5.26,6.524c-1.619,2.017-3.224,4.027-4.839,6.034c-1.75,2.179-3.505,4.354-5.261,6.521
			c-1.597,1.985-3.205,3.966-4.796,5.959c-1.685,2.106-3.356,4.23-5.036,6.336c-1.717,2.158-3.44,4.32-5.167,6.473
			c-2.233,2.781-4.982,4.636-8.597,5.135c-4.553,0.622-8.372-0.781-11.412-4.153c-1.783-1.979-3.336-4.165-5.002-6.244
			c-1.674-2.085-3.382-4.149-5.046-6.234c-1.943-2.413-3.858-4.849-5.797-7.266c-1.741-2.151-3.505-4.277-5.251-6.426
			c-1.608-1.98-3.198-3.971-4.79-5.955c-1.416-1.776-2.816-3.563-4.231-5.338c-1.991-2.493-3.983-4.988-5.978-7.474
			c-1.307-1.631-2.687-3.206-3.909-4.894c-1.177-1.622-2.274-3.332-3.281-5.07c-1.276-2.2-2.482-4.429-3.619-6.697
			c-2.275-4.547-4.02-9.304-5.147-14.266c-0.498-2.205-0.745-4.473-0.955-6.724c-0.225-2.312-0.474-4.646-0.35-6.95
			c0.178-3.31,0.614-6.611,1.064-9.896c0.593-4.314,1.925-8.442,3.564-12.471c1.854-4.553,4.233-8.813,7.098-12.811
			c2.384-3.328,5.091-6.364,8.061-9.174c3.374-3.192,7.076-5.958,11.089-8.303c4.012-2.35,8.19-4.365,12.676-5.641
			c3.355-0.951,6.771-1.813,10.209-2.403c4.122-0.706,8.32-0.81,12.495-0.577c4.74,0.26,9.409,1.043,13.971,2.395
			c3.902,1.152,7.67,2.63,11.267,4.508c3.828,1.998,7.487,4.283,10.767,7.105c2.084,1.792,4.179,3.597,6.091,5.564
			c3.516,3.623,6.523,7.646,9.067,12.019c2.525,4.353,4.587,8.909,5.899,13.771c0.778,2.884,1.395,5.82,1.849,8.77
			C213.134,123.235,213.249,126.053,213.5,128.852L213.5,128.852z M125.436,128.923c0.078,13.882,11.239,24.714,24.629,24.846
			c14.452,0.145,25.325-11.123,25.411-24.688c0.096-14.123-11.031-24.624-24.093-25.09
			C136.71,103.466,125.354,115.351,125.436,128.923L125.436,128.923z M125.436,128.923"/>
	</g>
</g>
</svg>
