<?xml version="1.0" standalone="no"?><!DOCTYPE svg PUBLIC "-//W3C//DTD SVG 1.1//EN" "http://www.w3.org/Graphics/SVG/1.1/DTD/svg11.dtd"><svg t="1504059391094" class="icon" style="" viewBox="0 0 1024 1024" version="1.1" xmlns="http://www.w3.org/2000/svg" p-id="3746" xmlns:xlink="http://www.w3.org/1999/xlink" width="128" height="128"><defs><style type="text/css"></style></defs><path d="M277.76 535.2192l218.4448 0 0 218.4448c0 10.5984 8.6016 19.2 19.2 19.2s19.2-8.6016 19.2-19.2l0-218.4448 218.4448 0c10.5984 0 19.2-8.6016 19.2-19.2s-8.6016-19.2-19.2-19.2l-218.4448 0 0-218.4448c0-10.5984-8.6016-19.2-19.2-19.2s-19.2 8.6016-19.2 19.2l0 218.4448L277.76 496.8192c-10.5984 0-19.2 8.6016-19.2 19.2S267.1616 535.2192 277.76 535.2192z" p-id="3747" fill="#515151"></path><path d="M523.6224 984.832c254.6688 0 461.8752-207.2064 461.8752-461.8752S778.2912 61.0816 523.6224 61.0816 61.7472 268.288 61.7472 522.9568 268.9536 984.832 523.6224 984.832zM523.6224 99.4816c233.4976 0 423.4752 189.9776 423.4752 423.4752S757.12 946.432 523.6224 946.432 100.1472 756.4544 100.1472 522.9568 290.1248 99.4816 523.6224 99.4816z" p-id="3748" fill="#515151"></path></svg>