<?xml version="1.0" encoding="utf-8"?>
<!-- Generator: Adobe Illustrator 13.0.0, SVG Export Plug-In . SVG Version: 6.00 Build 14948)  -->
<!DOCTYPE svg PUBLIC "-//W3C//DTD SVG 1.1//EN" "http://www.w3.org/Graphics/SVG/1.1/DTD/svg11.dtd">
<svg version="1.1" id="图层_1" xmlns="http://www.w3.org/2000/svg" xmlns:xlink="http://www.w3.org/1999/xlink" x="0px" y="0px"
	 width="128px" height="16px" viewBox="0 0 128 16" enable-background="new 0 0 128 16" xml:space="preserve">
<g>
	<path fill="#888888" d="M119.647,16c-2.264-1.976-3.693-4.879-3.693-8.118c0-3.111,1.321-5.909,3.418-7.882l1.28,1.278
		c-1.778,1.643-2.898,3.991-2.898,6.604c0,2.741,1.234,5.193,3.165,6.846L119.647,16L119.647,16z M119.647,16"/>
	<path fill="#888888" d="M123.072,12.571c-1.494-1.019-2.486-2.74-2.486-4.689c0-1.822,0.865-3.434,2.197-4.475l1.285,1.289
		c-1.01,0.693-1.679,1.862-1.679,3.186c0,1.451,0.808,2.718,2,3.377L123.072,12.571L123.072,12.571z M126.508,9.426
		c-0.708,0-1.285-0.578-1.285-1.289c0-0.711,0.577-1.29,1.285-1.29c0.714,0,1.288,0.578,1.288,1.29
		C127.796,8.848,127.223,9.426,126.508,9.426L126.508,9.426z M126.508,9.426"/>
</g>
</svg>
