<?xml version="1.0" standalone="no"?><!DOCTYPE svg PUBLIC "-//W3C//DTD SVG 1.1//EN" "http://www.w3.org/Graphics/SVG/1.1/DTD/svg11.dtd"><svg t="1504059270672" class="icon" style="" viewBox="0 0 1024 1024" version="1.1" xmlns="http://www.w3.org/2000/svg" p-id="2363" xmlns:xlink="http://www.w3.org/1999/xlink" width="128" height="128"><defs><style type="text/css"></style></defs><path d="M526.772148 37.243259c-265.690074 0-488.941037 201.91763-488.941037 467.607704C37.831111 770.522074 261.082074 986.074074 526.772148 986.074074S986.074074 770.522074 986.074074 504.850963C986.074074 239.160889 792.462222 37.243259 526.772148 37.243259z m0 911.151408c-246.878815 0-450.085926-196.683852-450.085926-443.562667C76.686222 257.972148 279.893333 74.903704 526.772148 74.903704s422.817185 183.068444 422.817185 429.928296c0 246.878815-175.93837 443.562667-422.817185 443.562667z m249.457778-691.920593c-11.036444-2.806519-25.41037 1.024-41.927111 11.093333L241.417481 528.365037c-4.247704 1.934222-18.014815 9.253926-17.711407 22.243556 0.18963 8.685037 6.33363 15.492741 18.906074 20.498963l155.799704 51.52237 7.395555-35.365926-132.001185-40.827259L701.060741 320.170667 463.644444 582.030222c-4.778667 5.138963-21.82637 31.990519-25.751703 62.843259v115.57926h36.560592l-0.113777-114.04326c2.180741-16.535704 28.425481-50.062222 44.714666-67.621925l235.330371-266.315852-73.803852 354.398815c-1.536 14.544593-5.632 17.161481-6.125037 17.445925-1.365333 0.739556-3.944296-0.18963-4.28563-0.341333a11.984593 11.984593 0 0 0-2.029037-0.891259l-146.697481-52.224-10.960593 37.736296 156.577185 51.958519c2.294519 1.080889 7.224889 2.996148 13.217185 2.996148 3.735704 0 7.907556-0.739556 12.098371-2.920296 10.467556-5.423407 16.782222-17.502815 18.583703-34.853926l80.06163-411.818667a11.757037 11.757037 0 0 0-1.365333-8.116148c-0.967111-1.649778-4.702815-7.149037-13.425778-9.367704z" p-id="2364" fill="#515151"></path></svg>